<svg xmlns="http://www.w3.org/2000/svg" viewBox="0 0 476.4 127.8"><path fill="#fff" d="M13 40 0 72h6l11-27h22l2-5H13zM52 51l-8 21h6l8-21h-6zM96 71H69l9-22h27Zm-19-5h15l5-11H81ZM416 49l2-5h-5l-5 11h10l-5 11h-17l4-11h3l3-6h-10l-8 22h29l9-22h-10zM263 71h-16l10-23h27l-6 13a16 16 0 0 1-15 10Zm-8-5h8a11 11 0 0 0 10-7l3-6h-16ZM353 72l7-17h11l-7 17h6l9-22h-23l-9 22h6zM299 55l3-5h22l-2 5h-23zM293 72l2-6h22l-2 6h-22zM295 66l2-5h10l-2 5h-10zM458 63l-1 3h-20l-3 5h27l3-8h-6zM452 49l-5 12h6l2-6h19l2-6h-24z"/><path fill="#fff" d="M0 72h6c2-6 9-14 23-14l2-5h-2C10 53 2 66 0 72ZM221 57a144 144 0 0 0-25 3l20-52 2-3V4l-5-2-5-2v1c-7 17-18 28-30 34l7-17-10-4-11 27a87 87 0 0 1-31 4l-1 11h5a106 106 0 0 0 21-2l-17 40-12 30 10 4 12-30c1-1 7-13 26-22l-10 24 10 4 14-32a126 126 0 0 1 30-4Zm-39 6a85 85 0 0 0-19 9l9-22a82 82 0 0 0 20-11ZM233 91h6a1 1 0 0 1 0 1h-5v7a4 4 0 0 1 2-1 1 1 0 0 1 1 0 1 1 0 0 1 0 1 1 1 0 0 1-1 0 3 3 0 0 0-2 2 10 10 0 0 0 0 1 5 5 0 0 1 0 1 1 1 0 0 1-2 0V92l1-1ZM250 91a1 1 0 0 1 1 0v8a4 4 0 0 0 0 2 2 2 0 0 0 1 1 2 2 0 0 0 1 0 2 2 0 0 0 3-1 3 3 0 0 0 0-1v-8a2 2 0 0 1 0-1 1 1 0 0 1 1 0 8 8 0 0 1 0 2v7a6 6 0 0 1 0 2 4 4 0 0 1-3 2 4 4 0 0 1-1 0 4 4 0 0 1-1 0 4 4 0 0 1-2-3V91ZM268 91h9a1 1 0 0 1 0 1h-4v11a1 1 0 0 1-1 1 1 1 0 0 1 0-1v-1l-1-4a13 13 0 0 0 0-2 8 8 0 0 0-2-3 2 2 0 0 0-1-1 1 1 0 0 1-1 0 1 1 0 0 1 1-1Zm4 2v-1h-1a2 2 0 0 0 0 1 2 2 0 0 0 1 1 2 2 0 0 0 0-1ZM287 91a1 1 0 0 1 1 0v8a4 4 0 0 0 1 2 2 2 0 0 0 1 1 2 2 0 0 0 1 0 2 2 0 0 0 2-1 3 3 0 0 0 0-1v-8a2 2 0 0 1 0-1 1 1 0 0 1 1 0 1 1 0 0 1 1 0 8 8 0 0 1 0 2v3l-1 5a6 6 0 0 1 0 1 3 3 0 0 1-2 2 4 4 0 0 1-1 0 4 4 0 0 1-1 0 4 4 0 0 1-3-3V91ZM305 91h7v3a25 25 0 0 1 0 2 4 4 0 0 1 0 1 4 4 0 0 1-1 2h-1l1 1a4 4 0 0 1 1 3 1 1 0 0 1-1 1 1 1 0 0 1 0-1 3 3 0 0 0-3-3 1 1 0 0 1-1 0 1 1 0 0 1 0-1 1 1 0 0 1 1-1 3 3 0 0 0 1 0 3 3 0 0 0 1-1 3 3 0 0 0 1-1 17 17 0 0 0 0-2v-2h-5v11a1 1 0 0 1-1 1 1 1 0 0 1 0-1ZM323 91a29 29 0 0 1 3 0h3a1 1 0 0 1 0 1h-5v7h2a1 1 0 0 1 1 0 1 1 0 0 1 0 1 6 6 0 0 1-2 0h-1v2h5v1a1 1 0 0 1 0 1h-3a26 26 0 0 1-3 0l-1-1a82 82 0 0 1 1-12ZM340 91a2 2 0 0 1 1 1v2l2 6v-2c0-2 1-1 1-1l-1-3a20 20 0 0 1 0-3h3a1 1 0 0 1 0 1 20 20 0 0 1 0 2l-1 3 1 2v1l2-5v-3a2 2 0 0 1 1-1 1 1 0 0 1 1 0 1 1 0 0 1 0 1 20 20 0 0 1-1 2v3l-1 3-1 3-1 1a1 1 0 0 1 0-1 12 12 0 0 1-1-1v-2a1 1 0 0 1 0-1l-1 2a10 10 0 0 1-1 3 1 1 0 0 1-1-1v-1l-1-5-2-5a1 1 0 0 1 0-1h1Zm5 1a1 1 0 0 0-1 0 6 6 0 0 0 0 1 7 7 0 0 0 1 1s0 0 0-1a4 4 0 0 0 0-1ZM360 91a30 30 0 0 1 3 0h4a1 1 0 0 1 0 1 1 1 0 0 1-1 0h-5v7h3a1 1 0 0 1 1 0 1 1 0 0 1 0 1 1 1 0 0 1-1 0 6 6 0 0 1-1 0h-2v2h5v1a1 1 0 0 1 1 0 1 1 0 0 1-1 1h-3a26 26 0 0 1-3 0V91ZM381 91a1 1 0 0 1 1 0l2 8 1 4a1 1 0 0 1 0 1h-7a1 1 0 0 1-1 0v-1a61 61 0 0 1 2-6l1-3v-2a1 1 0 0 1 1-1Zm3 11-3-7v-1 1l-2 7h-1 6ZM396 91h7v3a25 25 0 0 1 0 2 4 4 0 0 1-1 1 4 4 0 0 1 0 2h-1v1a4 4 0 0 1 2 3 1 1 0 0 1-1 1 1 1 0 0 1 0-1 2 2 0 0 1-1 0 3 3 0 0 0-2-3 1 1 0 0 1-1 0 1 1 0 0 1 0-1 1 1 0 0 1 1-1 3 3 0 0 0 2-1 3 3 0 0 0 1-1 17 17 0 0 0 0-2v-2h-5v6a52 52 0 0 1 0 5 1 1 0 0 1-1 1 1 1 0 0 1 0-1h-1Z"/></svg>