<svg xmlns="http://www.w3.org/2000/svg" viewBox="0 0 361.06 27.19"><defs><style>.cls-1{fill:#b0191c;}</style></defs><g id="Camada_2" data-name="Camada 2"><g id="Camada_1-2" data-name="Camada 1"><path class="cls-1" d="M.68.61A63.51,63.51,0,0,1,7.51.46a64.82,64.82,0,0,1,6.86.15,1.11,1.11,0,0,1,.42.51,1.6,1.6,0,0,1,.18.73A.45.45,0,0,1,15,2a.28.28,0,0,0,0,.11,1.51,1.51,0,0,1-.5.75L14,3.18H2.9V16.54l.39-.28A9.2,9.2,0,0,1,8,14.65c.23,0,.5,0,.78,0a1.3,1.3,0,0,1,.93.43,1.37,1.37,0,0,1,.43,1,1.2,1.2,0,0,1-.39,1,2.3,2.3,0,0,1-1.28.4c-2.53.23-4.26,1.27-5.19,3.1a3,3,0,0,0-.3.93c0,.29-.05,1-.05,2.11a11.58,11.58,0,0,1-.15,2.65,1.4,1.4,0,0,1-1.32.82,1.38,1.38,0,0,1-1.29-.82Q0,25.95,0,13.76C0,7.37,0,3.64.07,2.55S.31.83.64.64Z"/><path class="cls-1" d="M37,.46a1.36,1.36,0,0,1,1-.46,1.32,1.32,0,0,1,1,.43l.39.43V9.43c0,4.67,0,7.59.13,8.74a7.91,7.91,0,0,0,.73,3,5,5,0,0,0,2.21,2.43,4.43,4.43,0,0,0,1.47.43,4.6,4.6,0,0,0,1,.08,4.66,4.66,0,0,0,4.39-2.79,6.84,6.84,0,0,0,.72-2.6c.07-.93.1-3.79.1-8.55C50,6,50,3.48,50,2.57A4.4,4.4,0,0,1,50.25.89,1.36,1.36,0,0,1,51.53,0a1.16,1.16,0,0,1,1.07.6,17.25,17.25,0,0,1,.25,4.29v5.43q-.08,8.61-.28,9.9a11.65,11.65,0,0,1-.9,2.32,7.35,7.35,0,0,1-4.79,4.11,9.36,9.36,0,0,1-2.17.21,9.49,9.49,0,0,1-2.19-.21q-4-1-5.57-5.93l-.36-1q0-3.15,0-9.46t0-9.44Z"/><path class="cls-1" d="M74.83.46,75.19,0H93.13l.42.43a1.29,1.29,0,0,1,.43,1,1.33,1.33,0,0,1-.43,1l-.42.39h-7V14.29q0,11.51-.14,11.79a1.34,1.34,0,0,1-1.22.82,1.3,1.3,0,0,1-1-.39l-.46-.43-.18-3.5c-.19-3.72-.37-6.28-.53-7.7a27.92,27.92,0,0,0-.79-4.09,15.83,15.83,0,0,0-3.22-6.5A4.48,4.48,0,0,0,76,2.78a1.91,1.91,0,0,1-1.15-.46,1.19,1.19,0,0,1-.42-.89A1.61,1.61,0,0,1,74.83.46Zm8.43,4V2.75h-1c-.66,0-1,0-1,.07a3.09,3.09,0,0,0,.47.75c.35.57.64,1.05.86,1.43a3.35,3.35,0,0,0,.57.89C83.23,5.89,83.26,5.42,83.26,4.47Z"/><path class="cls-1" d="M116,.46a1.39,1.39,0,0,1,1-.46,1.33,1.33,0,0,1,1,.43l.39.43V9.43c0,4.67,0,7.59.12,8.74a8.1,8.1,0,0,0,.74,3,5,5,0,0,0,2.21,2.43,4.43,4.43,0,0,0,1.47.43,4.49,4.49,0,0,0,1,.08,4.67,4.67,0,0,0,4.4-2.79,6.66,6.66,0,0,0,.71-2.6c.08-.93.11-3.79.11-8.55,0-4.15,0-6.67,0-7.58a4.71,4.71,0,0,1,.21-1.68A1.38,1.38,0,0,1,130.54,0a1.17,1.17,0,0,1,1.07.6,17.83,17.83,0,0,1,.25,4.29v5.43c-.05,5.74-.14,9-.29,9.9a10.89,10.89,0,0,1-.89,2.32,7.35,7.35,0,0,1-4.79,4.11,11.42,11.42,0,0,1-4.36,0q-4-1-5.58-5.93l-.35-1q0-3.15,0-9.46t0-9.44Z"/><path class="cls-1" d="M153.3,1c.38-.38.66-.67.82-.86h14l.44.36q.31.26.45.39V5.82c0,2.76-.05,4.52-.14,5.25a8.58,8.58,0,0,1-.83,2.54,8.87,8.87,0,0,1-1.85,2.4l-1.32,1.32.89.82a8.77,8.77,0,0,1,2.93,6.4c0,.29,0,.6,0,1a1.3,1.3,0,0,1-.33.9,1.33,1.33,0,0,1-1,.42,1.24,1.24,0,0,1-1-.37,3.26,3.26,0,0,1-.39-1.52q-.47-5.61-6-6.18a1.78,1.78,0,0,1-1.25-.54,1.32,1.32,0,0,1-.35-.93,1.25,1.25,0,0,1,.41-1,1.45,1.45,0,0,1,1.05-.39,6.59,6.59,0,0,0,1.47-.22,6.94,6.94,0,0,0,3.18-1.84,6.09,6.09,0,0,0,1.68-3.13,39.48,39.48,0,0,0,.14-4.29V2.89H156.05V14.43q0,11.55-.25,11.87a1.4,1.4,0,0,1-1.14.6,1.25,1.25,0,0,1-.93-.39l-.43-.43Z"/><path class="cls-1" d="M191.18.61a57.26,57.26,0,0,1,6.47-.15h6.18l.36.36a1.27,1.27,0,0,1,.35,1,1.25,1.25,0,0,1-.46,1l-.43.36H193.4V16.36h3c1.53,0,2.43,0,2.72.06a1.16,1.16,0,0,1,.68.3,1.45,1.45,0,0,1,.43.68.61.61,0,0,1,0,.22,1.46,1.46,0,0,1-.23.78,1.36,1.36,0,0,1-.52.54,14.13,14.13,0,0,1-3.25.18H193.4v5.21h10.36l.39.36a1.27,1.27,0,0,1,.39,1,1.22,1.22,0,0,1-.46,1l-.43.36h-6a56.31,56.31,0,0,1-6.33-.15l-.07,0a.91.91,0,0,1-.53-.75q-.22-1.08-.22-12.36,0-9.58.09-11.22C190.65,1.44,190.85.8,191.18.61Z"/><path class="cls-1" d="M226.84.17a1.57,1.57,0,0,1,.64-.17,1.42,1.42,0,0,1,.9.39,4.07,4.07,0,0,1,.64,1.4c.24.73.75,2.61,1.54,5.6q3.25,12.3,3.32,12.3A37.8,37.8,0,0,0,234.93,16c.66-2.43,1-3.75,1-3.94s-.47-1.93-1.4-5.44a40.28,40.28,0,0,1-1.28-5.46c0-.19.18-.47.53-.83L234.2,0h6.47l.43.35a1.4,1.4,0,0,1,.5.83,39.44,39.44,0,0,1-1.29,5.46c-.9,3.41-1.36,5.22-1.36,5.44s.33,1.51,1,3.94,1,3.67,1.05,3.67a6,6,0,0,0,.47-1.43q.14-.44,2.46-9.43,1.47-5.58,1.86-6.87a4.49,4.49,0,0,1,.68-1.57,1.32,1.32,0,0,1,.93-.35,1.29,1.29,0,0,1,1.22.82,1,1,0,0,1,.1.46,42,42,0,0,1-1.14,4.83c-.22.83-.71,2.73-1.5,5.7s-1.37,5.17-1.76,6.62c-1.35,5.08-2.05,7.66-2.1,7.76-.17.45-.6.67-1.29.67a1.38,1.38,0,0,1-.64-.1,2.58,2.58,0,0,1-.54-1,18.34,18.34,0,0,1-.75-2.37c-.26-1-.68-2.57-1.25-4.71-.05-.19-.08-.33-.11-.43a1.76,1.76,0,0,0-.07-.27.52.52,0,0,0-.07-.18s-.05,0-.07,0-.4,1.4-1.13,4.14-1.22,4.24-1.48,4.5a1.27,1.27,0,0,1-1,.39,1.16,1.16,0,0,1-1.22-.82c-.17-.52-.37-1.21-.61-2.07q-.14-.65-2.84-10.77T226.34,2.46a4.64,4.64,0,0,1-.21-1,1.41,1.41,0,0,1,.18-.61A1.17,1.17,0,0,1,226.84.17ZM238.2,2.89a1.94,1.94,0,0,0-.78-.11,1.83,1.83,0,0,0-.75.11.24.24,0,0,0-.07.18A11,11,0,0,0,237,4.75c.31,1.17.47,1.75.49,1.75s.16-.64.47-1.79a8.68,8.68,0,0,0,.36-1.6A.26.26,0,0,0,238.2,2.89Z"/><path class="cls-1" d="M270.9.61a57.41,57.41,0,0,1,6.47-.15h6.18l.36.36a1.27,1.27,0,0,1,.36,1,1.26,1.26,0,0,1-.47,1l-.43.36H273.12V16.36h3c1.53,0,2.44,0,2.72.06a1.13,1.13,0,0,1,.68.3,1.45,1.45,0,0,1,.43.68.61.61,0,0,1,0,.22,1.46,1.46,0,0,1-.23.78,1.36,1.36,0,0,1-.52.54,14.13,14.13,0,0,1-3.25.18h-2.89v5.21h10.36l.39.36a1.28,1.28,0,0,1,.4,1,1.22,1.22,0,0,1-.47,1l-.43.36h-6A56.31,56.31,0,0,1,271,26.9l-.07,0a.91.91,0,0,1-.53-.75q-.22-1.08-.22-12.36,0-9.58.09-11.22C270.37,1.44,270.57.8,270.9.61Z"/><path class="cls-1" d="M314.21.46a1.33,1.33,0,0,1,.57-.14,1.3,1.3,0,0,1,.75.25,1.08,1.08,0,0,1,.43.53q.39.87,4.93,15.3,2.82,9,2.83,9.61a1.41,1.41,0,0,1-.07.36,1.33,1.33,0,0,1-.47.68c-.19.1-3,.14-8.4.14q-6,0-7.09,0a2.72,2.72,0,0,1-1.38-.26.93.93,0,0,1-.46-.71c0-.35.94-3.54,2.82-9.54.48-1.48,1-3.09,1.52-4.84s1-3.36,1.48-4.83.73-2.34.82-2.62c.53-1.64.88-2.68,1.06-3.09A1.47,1.47,0,0,1,314.21.46Zm6.15,23.66q-.11-.5-5.08-16.15l-.46-1.51-.68,2.19q-1.71,5-4.75,15l-.25.86h11.29Z"/><path class="cls-1" d="M345.3,1c.38-.38.66-.67.82-.86h14.05l.44.36q.31.26.45.39V5.82c0,2.76-.05,4.52-.14,5.25a8.58,8.58,0,0,1-.83,2.54,8.87,8.87,0,0,1-1.85,2.4l-1.32,1.32.89.82a8.77,8.77,0,0,1,2.93,6.4c0,.28,0,.6,0,1a1.3,1.3,0,0,1-.33.9,1.33,1.33,0,0,1-1,.42,1.24,1.24,0,0,1-1-.37,3.26,3.26,0,0,1-.39-1.52q-.47-5.61-6-6.18a1.78,1.78,0,0,1-1.25-.54,1.32,1.32,0,0,1-.35-.93,1.25,1.25,0,0,1,.41-1,1.45,1.45,0,0,1,1-.39,6.59,6.59,0,0,0,1.47-.22,6.94,6.94,0,0,0,3.18-1.84,6.09,6.09,0,0,0,1.68-3.13,39.48,39.48,0,0,0,.14-4.29V2.89H348.05V14.43q0,11.55-.25,11.87a1.37,1.37,0,0,1-1.14.6,1.25,1.25,0,0,1-.93-.39l-.43-.43Z"/></g></g></svg>