<svg xmlns="http://www.w3.org/2000/svg" viewBox="0 0 81.7 113.2"><defs><linearGradient id="a" y1="56.6" x2="81.7" y2="56.6" gradientUnits="userSpaceOnUse"><stop offset="0" stop-color="#dd1a25"/><stop offset="1" stop-color="#af191a"/></linearGradient></defs><path d="M82 51a129 129 0 0 0-23 2L78 7l1-2V4l-4-2-5-2v1c-6 15-16 25-26 30l6-15-9-4-10 25a78 78 0 0 1-27 3l-1 9 4 1a93 93 0 0 0 19-2L11 83 0 109l9 4 11-26c0-1 6-12 23-19l-9 20 9 4 12-28a111 111 0 0 1 27-4Zm-35 5a75 75 0 0 0-17 8l8-20a72 72 0 0 0 18-9Z" style="fill:url(#a)"/></svg>